<svg width="200" height="200" viewBox="0 0 200 200" xmlns="http://www.w3.org/2000/svg">
    <!-- 背景圆形 - 深蓝色科技感背景 -->
    <circle cx="100" cy="100" r="90" fill="#0D2B4E" stroke="#1976D2" stroke-width="3"/>
    
    <!-- 蜜蜂身体 - 改为科技蓝渐变 -->
    <defs>
        <linearGradient id="beeBody" x1="0%" y1="0%" x2="100%" y2="0%">
            <stop offset="0%" stop-color="#1976D2"/>
            <stop offset="100%" stop-color="#42A5F5"/>
        </linearGradient>
    </defs>
    <path d="M70 100Q100 60 130 100Q100 140 70 100Z" fill="url(#beeBody)" stroke="#E3F2FD" stroke-width="3"/>
    
    <!-- 条纹 - 改为浅蓝色 -->
    <rect x="75" y="80" width="50" height="10" rx="5" fill="#BBDEFB"/>
    <rect x="75" y="100" width="50" height="10" rx="5" fill="#BBDEFB"/>
    <rect x="75" y="120" width="50" height="10" rx="5" fill="#BBDEFB"/>
    
    <!-- 眼睛 - 保持白色增加科技感 -->
    <circle cx="85" cy="90" r="5" fill="#E3F2FD"/>
    <circle cx="115" cy="90" r="5" fill="#E3F2FD"/>
    <circle cx="85" cy="90" r="2" fill="#0D2B4E"/>
    <circle cx="115" cy="90" r="2" fill="#0D2B4E"/>
    
    <!-- 微笑 - 改为浅蓝色 -->
    <path d="M85 115Q100 125 115 115" fill="none" stroke="#BBDEFB" stroke-width="2" stroke-linecap="round"/>
    
    <!-- 触角 - 改为浅蓝色 -->
    <path d="M80 75Q75 60 65 65" fill="none" stroke="#BBDEFB" stroke-width="2" stroke-linecap="round"/>
    <path d="M120 75Q125 60 135 65" fill="none" stroke="#BBDEFB" stroke-width="2" stroke-linecap="round"/>
    <circle cx="65" cy="65" r="3" fill="#42A5F5"/>
    <circle cx="135" cy="65" r="3" fill="#42A5F5"/>
</svg>